<svg width="32" height="33" viewBox="0 0 32 33" fill="none" xmlns="http://www.w3.org/2000/svg">
<path d="M5.4993 29.3085H4.4993C4.4993 29.8608 4.94701 30.3085 5.4993 30.3085V29.3085ZM26.4827 29.3085V30.3085C27.0349 30.3085 27.4827 29.8608 27.4827 29.3085H26.4827ZM4.00049 14.3204H3.00049C3.00049 14.8727 3.4482 15.3204 4.00049 15.3204V14.3204ZM4.00049 9.82393V8.82393C3.4482 8.82393 3.00049 9.27165 3.00049 9.82393H4.00049ZM27.9815 9.82393H28.9815C28.9815 9.27165 28.5338 8.82393 27.9815 8.82393V9.82393ZM27.9815 14.3204V15.3204C28.5338 15.3204 28.9815 14.8727 28.9815 14.3204H27.9815ZM15.991 9.82393L15.9245 10.8217C15.9688 10.8247 16.0132 10.8247 16.0575 10.8217L15.991 9.82393ZM5.4993 30.3085H26.4827V28.3085H5.4993V30.3085ZM27.4827 29.3085V14.3204H25.4827V29.3085H27.4827ZM26.4827 13.3204H5.4993V15.3204H26.4827V13.3204ZM4.4993 14.3204V29.3085H6.4993V14.3204H4.4993ZM5.4993 13.3204H4.00049V15.3204H5.4993V13.3204ZM5.00049 14.3204V9.82393H3.00049V14.3204H5.00049ZM4.00049 10.8239H27.9815V8.82393H4.00049V10.8239ZM26.9815 9.82393V14.3204H28.9815V9.82393H26.9815ZM27.9815 13.3204H26.4827V15.3204H27.9815V13.3204ZM16.9013 10.2377C17.5107 8.89712 18.5752 6.96772 19.7893 5.75357C20.3999 5.14292 20.9498 4.8138 21.4052 4.73034C21.7815 4.66139 22.2256 4.73306 22.7777 5.2852L24.192 3.87099C23.2453 2.92432 22.1594 2.55883 21.0447 2.7631C20.0092 2.95286 19.1071 3.60734 18.3751 4.33938C16.9039 5.81059 15.7203 8.00292 15.0806 9.41013L16.9013 10.2377ZM22.7777 5.2852C23.0717 5.57912 23.1782 5.79408 23.2138 5.92191C23.2439 6.0302 23.2367 6.11862 23.19 6.22492C23.0659 6.50724 22.6552 6.91204 21.8137 7.34017C20.1892 8.1667 17.7085 8.70721 15.9245 8.82615L16.0575 10.8217C18.0205 10.6909 20.7855 10.1073 22.7206 9.12272C23.6589 8.64532 24.6064 7.97285 25.021 7.02957C25.2436 6.52308 25.3008 5.96163 25.1406 5.38589C24.9859 4.82969 24.6474 4.32647 24.192 3.87099L22.7777 5.2852ZM16.9013 9.41013C16.2617 8.0029 15.078 5.81058 13.6068 4.33936C12.8747 3.60732 11.9726 2.95286 10.9371 2.7631C9.82237 2.55883 8.73647 2.92431 7.7898 3.87099L9.20401 5.2852C9.75615 4.73306 10.2003 4.66139 10.5766 4.73034C11.032 4.8138 11.5819 5.14293 12.1926 5.75358C13.4067 6.96773 14.4713 8.89714 15.0806 10.2377L16.9013 9.41013ZM7.7898 3.87099C7.33431 4.32647 6.99588 4.8297 6.84116 5.3859C6.681 5.96165 6.73822 6.52311 6.96082 7.0296C7.37538 7.97286 8.32291 8.64533 9.26124 9.12272C11.1964 10.1073 13.9615 10.6909 15.9245 10.8217L16.0575 8.82615C14.2734 8.70721 11.7927 8.1667 10.1682 7.34017C9.32664 6.91203 8.91587 6.50723 8.79179 6.2249C8.74507 6.11859 8.73788 6.03018 8.768 5.9219C8.80356 5.79407 8.91009 5.57912 9.20401 5.2852L7.7898 3.87099Z" fill="#D0B35D"/>
</svg>
