<svg width="40" height="40" viewBox="0 0 40 40" fill="none" xmlns="http://www.w3.org/2000/svg">
<path d="M6.87351 36H5.87351C5.87351 36.5523 6.32123 37 6.87351 37V36ZM33.1027 36V37C33.655 37 34.1027 36.5523 34.1027 36H33.1027ZM5 17.2649H4C4 17.8171 4.44772 18.2649 5 18.2649V17.2649ZM5 11.6443V10.6443C4.44772 10.6443 4 11.092 4 11.6443H5ZM34.9762 11.6443H35.9762C35.9762 11.092 35.5285 10.6443 34.9762 10.6443V11.6443ZM34.9762 17.2649V18.2649C35.5285 18.2649 35.9762 17.8171 35.9762 17.2649H34.9762ZM19.9881 11.6443L19.9216 12.6421C19.9659 12.6451 20.0103 12.6451 20.0546 12.6421L19.9881 11.6443ZM6.87351 37H33.1027V35H6.87351V37ZM34.1027 36V17.2649H32.1027V36H34.1027ZM33.1027 16.2649H6.87351V18.2649H33.1027V16.2649ZM5.87351 17.2649V36H7.87351V17.2649H5.87351ZM6.87351 16.2649H5V18.2649H6.87351V16.2649ZM6 17.2649V11.6443H4V17.2649H6ZM5 12.6443H34.9762V10.6443H5V12.6443ZM33.9762 11.6443V17.2649H35.9762V11.6443H33.9762ZM34.9762 16.2649H33.1027V18.2649H34.9762V16.2649ZM20.8985 12.0581C21.664 10.374 23.0095 7.9294 24.5592 6.37958C25.3377 5.6011 26.069 5.14903 26.7108 5.03142C27.2735 4.92832 27.9089 5.05463 28.6483 5.79412L30.0626 4.37991C28.9285 3.24589 27.6514 2.82576 26.3503 3.06418C25.1284 3.2881 24.0448 4.06552 23.145 4.96539C21.3382 6.77228 19.8735 9.47983 19.0777 11.2305L20.8985 12.0581ZM28.6483 5.79412C29.0359 6.18172 29.1981 6.48645 29.2575 6.69978C29.3114 6.89358 29.2961 7.06323 29.2157 7.24613C29.0244 7.68165 28.4438 8.22111 27.3799 8.76243C25.3104 9.81534 22.174 10.4964 19.9216 10.6465L20.0546 12.6421C22.486 12.48 25.9068 11.7559 28.2868 10.545C29.4476 9.95439 30.5649 9.14726 31.0467 8.05079C31.303 7.46769 31.3682 6.825 31.1843 6.16376C31.0058 5.52206 30.6117 4.92906 30.0626 4.37991L28.6483 5.79412ZM20.8985 11.2305C20.1027 9.47981 18.638 6.77227 16.8311 4.96538C15.9312 4.06551 14.8476 3.28809 13.6257 3.06418C12.3246 2.82576 11.0474 3.24588 9.91341 4.37991L11.3276 5.79412C12.0671 5.05463 12.7025 4.92831 13.2652 5.03142C13.907 5.14903 14.6384 5.60111 15.4169 6.3796C16.9667 7.92942 18.3123 10.374 19.0777 12.0581L20.8985 11.2305ZM9.91341 4.37991C9.36425 4.92907 8.9702 5.52207 8.7917 6.16378C8.60775 6.82503 8.67302 7.46772 8.92928 8.05081C9.41117 9.14727 10.5285 9.9544 11.6893 10.545C14.0694 11.7559 17.4902 12.48 19.9216 12.6421L20.0546 10.6465C17.8022 10.4964 14.6657 9.81534 12.5962 8.76243C11.5322 8.2211 10.9517 7.68164 10.7603 7.24611C10.6799 7.0632 10.6646 6.89355 10.7185 6.69977C10.7779 6.48644 10.94 6.18172 11.3276 5.79412L9.91341 4.37991Z" fill="url(#paint0_linear_1_2081)"/>
<defs>
<linearGradient id="paint0_linear_1_2081" x1="5" y1="4" x2="35.9894" y2="36.8916" gradientUnits="userSpaceOnUse">
<stop stop-color="#F1E4B7"/>
<stop offset="0.442708" stop-color="#F5F1CE"/>
<stop offset="1" stop-color="#F7C67D"/>
</linearGradient>
</defs>
</svg>
