<svg width="32" height="32" viewBox="0 0 32 32" fill="none" xmlns="http://www.w3.org/2000/svg">
<path d="M27.0606 7.06066C27.6464 6.47487 27.6464 5.52513 27.0606 4.93934C26.4749 4.35355 25.5251 4.35355 24.9393 4.93934L27.0606 7.06066ZM4.93934 24.9393C4.35355 25.5251 4.35355 26.4749 4.93934 27.0606C5.52513 27.6464 6.47487 27.6464 7.06066 27.0606L4.93934 24.9393ZM7.06068 4.93934C6.47489 4.35355 5.52515 4.35355 4.93936 4.93934C4.35357 5.52513 4.35357 6.47487 4.93936 7.06066L7.06068 4.93934ZM24.9393 27.0606C25.5251 27.6464 26.4749 27.6464 27.0607 27.0606C27.6464 26.4749 27.6464 25.5251 27.0607 24.9393L24.9393 27.0606ZM24.9393 4.93934L4.93934 24.9393L7.06066 27.0606L27.0606 7.06066L24.9393 4.93934ZM4.93936 7.06066L24.9393 27.0606L27.0607 24.9393L7.06068 4.93934L4.93936 7.06066Z" fill="white"/>
</svg>
