<svg width="95" height="40" viewBox="0 0 95 40" fill="none" xmlns="http://www.w3.org/2000/svg">
<path d="M0 29.6629V29.2135L0.94382 28.8539C1.57303 28.6142 1.96255 28.3296 2.11236 28C2.29214 27.6404 2.38202 27.1611 2.38202 26.5618V3.10112C2.38202 2.50187 2.29214 2.02247 2.11236 1.66292C1.93258 1.30337 1.54307 1.01873 0.94382 0.808989L0 0.449438V0H11.4607V0.449438L10.6517 0.808989C10.0824 1.01873 9.69288 1.31835 9.48315 1.70786C9.27341 2.06742 9.16854 2.54682 9.16854 3.14607V28.764H16.0899C17.1985 28.764 18.0075 28.4944 18.5169 27.9551C19.0562 27.4157 19.5655 26.6367 20.0449 25.618L21.7978 21.8427H22.2472L21.8427 29.6629H0Z" fill="white"/>
<path d="M35.5523 30.3371C33.2752 30.3371 31.2976 29.8727 29.6197 28.9438C27.9418 27.985 26.6385 26.6367 25.7096 24.8989C24.8107 23.1611 24.3613 21.1236 24.3613 18.7865C24.3613 16.4494 24.8407 14.427 25.7995 12.7191C26.7883 11.0112 28.1216 9.69288 29.7995 8.76404C31.5074 7.83521 33.425 7.37079 35.5523 7.37079C37.6797 7.37079 39.5823 7.83521 41.2602 8.76404C42.9381 9.66292 44.2564 10.9663 45.2152 12.6742C46.204 14.382 46.6984 16.4195 46.6984 18.7865C46.6984 21.1536 46.234 23.206 45.3051 24.9438C44.4062 26.6517 43.1179 27.985 41.44 28.9438C39.792 29.8727 37.8295 30.3371 35.5523 30.3371ZM35.5523 29.4382C36.601 29.4382 37.44 29.1386 38.0692 28.5393C38.6984 27.9401 39.1478 26.8764 39.4175 25.3483C39.7171 23.8202 39.8669 21.6629 39.8669 18.8764C39.8669 16.0599 39.7171 13.8876 39.4175 12.3596C39.1478 10.8315 38.6984 9.76779 38.0692 9.16854C37.44 8.56929 36.601 8.26966 35.5523 8.26966C34.5036 8.26966 33.6497 8.56929 32.9905 9.16854C32.3613 9.76779 31.8969 10.8315 31.5973 12.3596C31.3276 13.8876 31.1928 16.0599 31.1928 18.8764C31.1928 21.6629 31.3276 23.8202 31.5973 25.3483C31.8969 26.8764 32.3613 27.9401 32.9905 28.5393C33.6497 29.1386 34.5036 29.4382 35.5523 29.4382Z" fill="white"/>
<path d="M58.4702 21.8876C56.4027 21.8876 54.6499 21.5431 53.2117 20.8539V22.382C53.2117 23.3109 53.6761 23.8652 54.605 24.0449L63.0544 25.618C64.4627 25.8876 65.7361 26.2472 66.8746 26.6966C68.0132 27.1161 68.9271 27.7303 69.6162 28.5393C70.3054 29.3184 70.6499 30.397 70.6499 31.7753C70.6499 33.2434 70.1705 34.5918 69.2117 35.8202C68.2529 37.0787 66.8297 38.0824 64.9421 38.8315C63.0844 39.6105 60.7623 40 57.9758 40C55.5788 40 53.6761 39.7453 52.2679 39.236C50.8597 38.7566 49.8559 38.1273 49.2567 37.3483C48.6874 36.5693 48.4027 35.7453 48.4027 34.8764C48.4027 33.7978 48.7623 32.7041 49.4814 31.5955C50.2305 30.5169 51.1443 29.6479 52.223 28.9888C51.2941 28.6292 50.62 28.1648 50.2005 27.5955C49.781 27.0262 49.5713 26.412 49.5713 25.7528C49.5713 25.1536 49.7211 24.5993 50.0207 24.0899C50.3503 23.5506 50.7398 23.0112 51.1893 22.4719L52.6724 20.5843C50.4851 19.3258 49.3915 17.3483 49.3915 14.6517C49.3915 12.4944 50.1556 10.7416 51.6836 9.39326C53.2417 8.04494 55.5188 7.37079 58.5151 7.37079C60.0432 7.37079 61.3765 7.55056 62.5151 7.91011C63.6836 8.26966 64.6424 8.77903 65.3915 9.4382C66.3503 9.28839 67.2492 9.04869 68.0881 8.7191C68.9571 8.35955 69.7361 7.88015 70.4252 7.2809L71.0544 7.73034V10.0225H65.9758C67.0544 11.221 67.5938 12.764 67.5938 14.6517C67.5938 16.7491 66.8147 18.4869 65.2567 19.8652C63.7286 21.2135 61.4664 21.8876 58.4702 21.8876ZM58.4252 20.9888C59.6237 20.9888 60.4926 20.4944 61.0319 19.5056C61.6012 18.5169 61.8859 16.8689 61.8859 14.5618C61.8859 12.2547 61.6012 10.6367 61.0319 9.70786C60.4926 8.74906 59.6537 8.26966 58.5151 8.26966C57.4065 8.26966 56.5675 8.76405 55.9982 9.75281C55.429 10.7116 55.1443 12.3446 55.1443 14.6517C55.1443 16.9588 55.399 18.5918 55.9084 19.5506C56.4477 20.5094 57.2866 20.9888 58.4252 20.9888ZM51.7286 33.4382C51.7286 35.206 52.2679 36.5393 53.3466 37.4382C54.4552 38.3371 56.193 38.7865 58.56 38.7865C61.0469 38.7865 62.9196 38.382 64.178 37.573C65.4364 36.764 66.0657 35.6255 66.0657 34.1573C66.0657 33.3184 65.7511 32.6442 65.1218 32.1348C64.5226 31.6255 63.4889 31.236 62.0207 30.9663L53.8859 29.4382C53.6462 29.3783 53.4065 29.3184 53.1668 29.2584C52.7473 29.8577 52.4027 30.5318 52.1331 31.2809C51.8634 32.0599 51.7286 32.779 51.7286 33.4382Z" fill="white"/>
<path d="M83.2173 30.3371C80.9402 30.3371 78.9627 29.8727 77.2848 28.9438C75.6069 27.985 74.3035 26.6367 73.3746 24.8989C72.4758 23.1611 72.0263 21.1236 72.0263 18.7865C72.0263 16.4494 72.5057 14.427 73.4645 12.7191C74.4533 11.0112 75.7866 9.69288 77.4645 8.76404C79.1724 7.83521 81.09 7.37079 83.2173 7.37079C85.3447 7.37079 87.2473 7.83521 88.9252 8.76404C90.6031 9.66292 91.9215 10.9663 92.8803 12.6742C93.869 14.382 94.3634 16.4195 94.3634 18.7865C94.3634 21.1536 93.899 23.206 92.9702 24.9438C92.0713 26.6517 90.7829 27.985 89.105 28.9438C87.457 29.8727 85.4945 30.3371 83.2173 30.3371ZM83.2173 29.4382C84.266 29.4382 85.105 29.1386 85.7342 28.5393C86.3634 27.9401 86.8129 26.8764 87.0825 25.3483C87.3821 23.8202 87.532 21.6629 87.532 18.8764C87.532 16.0599 87.3821 13.8876 87.0825 12.3596C86.8129 10.8315 86.3634 9.76779 85.7342 9.16854C85.105 8.56929 84.266 8.26966 83.2173 8.26966C82.1687 8.26966 81.3147 8.56929 80.6555 9.16854C80.0263 9.76779 79.5619 10.8315 79.2623 12.3596C78.9926 13.8876 78.8578 16.0599 78.8578 18.8764C78.8578 21.6629 78.9926 23.8202 79.2623 25.3483C79.5619 26.8764 80.0263 27.9401 80.6555 28.5393C81.3147 29.1386 82.1687 29.4382 83.2173 29.4382Z" fill="white"/>
</svg>
