<svg width="32" height="32" viewBox="0 0 32 32" fill="none" xmlns="http://www.w3.org/2000/svg">
<path d="M4 23C3.44772 23 3 23.4477 3 24C3 24.5523 3.44772 25 4 25V23ZM28 25C28.5523 25 29 24.5523 29 24C29 23.4477 28.5523 23 28 23V25ZM4 15.5C3.44772 15.5 3 15.9477 3 16.5C3 17.0523 3.44772 17.5 4 17.5V15.5ZM28 17.5C28.5523 17.5 29 17.0523 29 16.5C29 15.9477 28.5523 15.5 28 15.5V17.5ZM4 8C3.44772 8 3 8.44772 3 9C3 9.55228 3.44772 10 4 10V8ZM28 10C28.5523 10 29 9.55228 29 9C29 8.44772 28.5523 8 28 8V10ZM4 25H28V23H4V25ZM4 17.5H28V15.5H4V17.5ZM4 10H28V8H4V10Z" fill="white"/>
</svg>
