<svg width="67" height="28" viewBox="0 0 67 28" fill="none" xmlns="http://www.w3.org/2000/svg">
<path d="M0.320312 20.764V20.4494L0.980987 20.1978C1.42144 20.03 1.6941 19.8307 1.79896 19.6C1.92481 19.3483 1.98773 19.0127 1.98773 18.5933V2.17079C1.98773 1.75131 1.92481 1.41573 1.79896 1.16404C1.67312 0.912359 1.40046 0.713108 0.980987 0.566292L0.320312 0.314606V0H8.34278V0.314606L7.77649 0.566292C7.37799 0.713108 7.10533 0.922846 6.95852 1.19551C6.8117 1.44719 6.73829 1.78277 6.73829 2.20225V20.1348H11.5832C12.3593 20.1348 12.9256 19.9461 13.2821 19.5685C13.6596 19.191 14.0162 18.6457 14.3518 17.9326L15.5787 15.2899H15.8933L15.6102 20.764H0.320312Z" fill="url(#paint0_linear_83_1741)"/>
<path d="M25.2069 21.236C23.6129 21.236 22.2287 20.9109 21.0541 20.2607C19.8796 19.5895 18.9672 18.6457 18.317 17.4292C17.6878 16.2127 17.3732 14.7865 17.3732 13.1506C17.3732 11.5146 17.7088 10.0989 18.38 8.90337C19.0721 7.70787 20.0054 6.78502 21.18 6.13483C22.3755 5.48464 23.7178 5.15955 25.2069 5.15955C26.6961 5.15955 28.0279 5.48464 29.2024 6.13483C30.377 6.76404 31.2998 7.6764 31.971 8.87191C32.6631 10.0674 33.0092 11.4936 33.0092 13.1506C33.0092 14.8075 32.6841 16.2442 32.0339 17.4607C31.4047 18.6562 30.5028 19.5895 29.3283 20.2607C28.1747 20.9109 26.8009 21.236 25.2069 21.236ZM25.2069 20.6067C25.941 20.6067 26.5283 20.397 26.9687 19.9775C27.4092 19.5581 27.7238 18.8135 27.9126 17.7438C28.1223 16.6742 28.2272 15.164 28.2272 13.2135C28.2272 11.2419 28.1223 9.72135 27.9126 8.65169C27.7238 7.58202 27.4092 6.83745 26.9687 6.41798C26.5283 5.9985 25.941 5.78876 25.2069 5.78876C24.4729 5.78876 23.8751 5.9985 23.4137 6.41798C22.9732 6.83745 22.6481 7.58202 22.4384 8.65169C22.2496 9.72135 22.1552 11.2419 22.1552 13.2135C22.1552 15.164 22.2496 16.6742 22.4384 17.7438C22.6481 18.8135 22.9732 19.5581 23.4137 19.9775C23.8751 20.397 24.4729 20.6067 25.2069 20.6067Z" fill="url(#paint1_linear_83_1741)"/>
<path d="M41.2494 15.3213C39.8022 15.3213 38.5753 15.0801 37.5685 14.5978V15.6674C37.5685 16.3176 37.8936 16.7056 38.5438 16.8315L44.4584 17.9326C45.4442 18.1213 46.3356 18.373 47.1326 18.6876C47.9296 18.9813 48.5693 19.4112 49.0517 19.9775C49.5341 20.5228 49.7753 21.2779 49.7753 22.2427C49.7753 23.2704 49.4397 24.2142 48.7685 25.0742C48.0974 25.9551 47.1011 26.6577 45.7798 27.182C44.4794 27.7273 42.8539 28 40.9034 28C39.2255 28 37.8936 27.8217 36.9078 27.4652C35.9221 27.1296 35.2195 26.6891 34.8 26.1438C34.4015 25.5985 34.2022 25.0217 34.2022 24.4135C34.2022 23.6584 34.4539 22.8929 34.9573 22.1169C35.4816 21.3618 36.1213 20.7536 36.8764 20.2921C36.2262 20.0404 35.7543 19.7154 35.4607 19.3169C35.167 18.9184 35.0202 18.4884 35.0202 18.027C35.0202 17.6075 35.1251 17.2195 35.3348 16.8629C35.5655 16.4854 35.8382 16.1079 36.1528 15.7303L37.191 14.409C35.6599 13.5281 34.8944 12.1438 34.8944 10.2562C34.8944 8.74607 35.4292 7.5191 36.4989 6.57528C37.5895 5.63146 39.1835 5.15955 41.2809 5.15955C42.3505 5.15955 43.2839 5.28539 44.0809 5.53708C44.8989 5.78876 45.57 6.14532 46.0944 6.60674C46.7655 6.50187 47.3947 6.33408 47.982 6.10337C48.5902 5.85169 49.1356 5.51611 49.618 5.09663L50.0584 5.41124V7.01573H46.5034C47.2584 7.85468 47.6359 8.93483 47.6359 10.2562C47.6359 11.7243 47.0906 12.9408 46 13.9056C44.9303 14.8494 43.3468 15.3213 41.2494 15.3213ZM41.218 14.6921C42.0569 14.6921 42.6651 14.3461 43.0427 13.6539C43.4412 12.9618 43.6404 11.8082 43.6404 10.1933C43.6404 8.57828 43.4412 7.44569 43.0427 6.79551C42.6651 6.12434 42.0779 5.78876 41.2809 5.78876C40.5048 5.78876 39.9176 6.13483 39.5191 6.82697C39.1206 7.49813 38.9213 8.6412 38.9213 10.2562C38.9213 11.8712 39.0996 13.0142 39.4562 13.6854C39.8337 14.3566 40.421 14.6921 41.218 14.6921ZM36.5303 23.4067C36.5303 24.6442 36.9078 25.5775 37.6629 26.2067C38.4389 26.836 39.6554 27.1506 41.3123 27.1506C43.0532 27.1506 44.364 26.8674 45.2449 26.3011C46.1258 25.7348 46.5663 24.9378 46.5663 23.9101C46.5663 23.3228 46.3461 22.8509 45.9056 22.4944C45.4861 22.1378 44.7625 21.8652 43.7348 21.6764L38.0404 20.6067C37.8726 20.5648 37.7048 20.5228 37.5371 20.4809C37.2434 20.9004 37.0022 21.3723 36.8135 21.8966C36.6247 22.4419 36.5303 22.9453 36.5303 23.4067Z" fill="url(#paint2_linear_83_1741)"/>
<path d="M58.5725 21.236C56.9784 21.236 55.5942 20.9109 54.4196 20.2607C53.2451 19.5895 52.3328 18.6457 51.6826 17.4292C51.0534 16.2127 50.7387 14.7865 50.7387 13.1506C50.7387 11.5146 51.0743 10.0989 51.7455 8.90337C52.4376 7.70787 53.371 6.78502 54.5455 6.13483C55.741 5.48464 57.0833 5.15955 58.5725 5.15955C60.0616 5.15955 61.3934 5.48464 62.568 6.13483C63.7425 6.76404 64.6653 7.6764 65.3365 8.87191C66.0286 10.0674 66.3747 11.4936 66.3747 13.1506C66.3747 14.8075 66.0496 16.2442 65.3994 17.4607C64.7702 18.6562 63.8683 19.5895 62.6938 20.2607C61.5402 20.9109 60.1665 21.236 58.5725 21.236ZM58.5725 20.6067C59.3065 20.6067 59.8938 20.397 60.3343 19.9775C60.7747 19.5581 61.0893 18.8135 61.2781 17.7438C61.4878 16.6742 61.5927 15.164 61.5927 13.2135C61.5927 11.2419 61.4878 9.72135 61.2781 8.65169C61.0893 7.58202 60.7747 6.83745 60.3343 6.41798C59.8938 5.9985 59.3065 5.78876 58.5725 5.78876C57.8384 5.78876 57.2406 5.9985 56.7792 6.41798C56.3387 6.83745 56.0137 7.58202 55.8039 8.65169C55.6151 9.72135 55.5208 11.2419 55.5208 13.2135C55.5208 15.164 55.6151 16.6742 55.8039 17.7438C56.0137 18.8135 56.3387 19.5581 56.7792 19.9775C57.2406 20.397 57.8384 20.6067 58.5725 20.6067Z" fill="url(#paint3_linear_83_1741)"/>
<defs>
<linearGradient id="paint0_linear_83_1741" x1="0.320313" y1="0" x2="18.1499" y2="47.6573" gradientUnits="userSpaceOnUse">
<stop stop-color="#F1E4B7"/>
<stop offset="0.442708" stop-color="#F5F1CE"/>
<stop offset="1" stop-color="#F7C67D"/>
</linearGradient>
<linearGradient id="paint1_linear_83_1741" x1="0.320313" y1="0" x2="18.1499" y2="47.6573" gradientUnits="userSpaceOnUse">
<stop stop-color="#F1E4B7"/>
<stop offset="0.442708" stop-color="#F5F1CE"/>
<stop offset="1" stop-color="#F7C67D"/>
</linearGradient>
<linearGradient id="paint2_linear_83_1741" x1="0.320313" y1="0" x2="18.1499" y2="47.6573" gradientUnits="userSpaceOnUse">
<stop stop-color="#F1E4B7"/>
<stop offset="0.442708" stop-color="#F5F1CE"/>
<stop offset="1" stop-color="#F7C67D"/>
</linearGradient>
<linearGradient id="paint3_linear_83_1741" x1="0.320313" y1="0" x2="18.1499" y2="47.6573" gradientUnits="userSpaceOnUse">
<stop stop-color="#F1E4B7"/>
<stop offset="0.442708" stop-color="#F5F1CE"/>
<stop offset="1" stop-color="#F7C67D"/>
</linearGradient>
</defs>
</svg>
