<svg width="67" height="28" viewBox="0 0 67 28" fill="none" xmlns="http://www.w3.org/2000/svg">
<path d="M0.319824 20.764V20.4494L0.980498 20.1978C1.42095 20.03 1.69361 19.8307 1.79848 19.6C1.92432 19.3483 1.98724 19.0127 1.98724 18.5933V2.17079C1.98724 1.75131 1.92432 1.41573 1.79848 1.16404C1.67263 0.912359 1.39997 0.713108 0.980498 0.566292L0.319824 0.314606V0H8.3423V0.314606L7.776 0.566292C7.3775 0.713108 7.10484 0.922846 6.95803 1.19551C6.81121 1.44719 6.7378 1.78277 6.7378 2.20225V20.1348H11.5827C12.3588 20.1348 12.9251 19.9461 13.2816 19.5685C13.6592 19.191 14.0157 18.6457 14.3513 17.9326L15.5783 15.2899H15.8929L15.6097 20.764H0.319824Z" fill="#D0B35D"/>
<path d="M25.2064 21.236C23.6124 21.236 22.2282 20.9109 21.0536 20.2607C19.8791 19.5895 18.9667 18.6457 18.3166 17.4292C17.6873 16.2127 17.3727 14.7865 17.3727 13.1506C17.3727 11.5146 17.7083 10.0989 18.3795 8.90337C19.0716 7.70787 20.0049 6.78502 21.1795 6.13483C22.375 5.48464 23.7173 5.15955 25.2064 5.15955C26.6956 5.15955 28.0274 5.48464 29.202 6.13483C30.3765 6.76404 31.2993 7.6764 31.9705 8.87191C32.6626 10.0674 33.0087 11.4936 33.0087 13.1506C33.0087 14.8075 32.6836 16.2442 32.0334 17.4607C31.4042 18.6562 30.5023 19.5895 29.3278 20.2607C28.1742 20.9109 26.8005 21.236 25.2064 21.236ZM25.2064 20.6067C25.9405 20.6067 26.5278 20.397 26.9682 19.9775C27.4087 19.5581 27.7233 18.8135 27.9121 17.7438C28.1218 16.6742 28.2267 15.164 28.2267 13.2135C28.2267 11.2419 28.1218 9.72135 27.9121 8.65169C27.7233 7.58202 27.4087 6.83745 26.9682 6.41798C26.5278 5.9985 25.9405 5.78876 25.2064 5.78876C24.4724 5.78876 23.8746 5.9985 23.4132 6.41798C22.9727 6.83745 22.6476 7.58202 22.4379 8.65169C22.2491 9.72135 22.1548 11.2419 22.1548 13.2135C22.1548 15.164 22.2491 16.6742 22.4379 17.7438C22.6476 18.8135 22.9727 19.5581 23.4132 19.9775C23.8746 20.397 24.4724 20.6067 25.2064 20.6067Z" fill="#D0B35D"/>
<path d="M41.2489 15.3213C39.8017 15.3213 38.5748 15.0801 37.568 14.5978V15.6674C37.568 16.3176 37.8931 16.7056 38.5433 16.8315L44.4579 17.9326C45.4437 18.1213 46.3351 18.373 47.1321 18.6876C47.9291 18.9813 48.5688 19.4112 49.0512 19.9775C49.5336 20.5228 49.7748 21.2779 49.7748 22.2427C49.7748 23.2704 49.4392 24.2142 48.768 25.0742C48.0969 25.9551 47.1006 26.6577 45.7793 27.182C44.4789 27.7273 42.8534 28 40.9029 28C39.225 28 37.8931 27.8217 36.9074 27.4652C35.9216 27.1296 35.219 26.6891 34.7995 26.1438C34.401 25.5985 34.2017 25.0217 34.2017 24.4135C34.2017 23.6584 34.4534 22.8929 34.9568 22.1169C35.4811 21.3618 36.1208 20.7536 36.8759 20.2921C36.2257 20.0404 35.7538 19.7154 35.4602 19.3169C35.1665 18.9184 35.0197 18.4884 35.0197 18.027C35.0197 17.6075 35.1246 17.2195 35.3343 16.8629C35.565 16.4854 35.8377 16.1079 36.1523 15.7303L37.1905 14.409C35.6594 13.5281 34.8939 12.1438 34.8939 10.2562C34.8939 8.74607 35.4287 7.5191 36.4984 6.57528C37.589 5.63146 39.183 5.15955 41.2804 5.15955C42.3501 5.15955 43.2834 5.28539 44.0804 5.53708C44.8984 5.78876 45.5695 6.14532 46.0939 6.60674C46.765 6.50187 47.3943 6.33408 47.9815 6.10337C48.5898 5.85169 49.1351 5.51611 49.6175 5.09663L50.0579 5.41124V7.01573H46.5029C47.2579 7.85468 47.6354 8.93483 47.6354 10.2562C47.6354 11.7243 47.0901 12.9408 45.9995 13.9056C44.9298 14.8494 43.3463 15.3213 41.2489 15.3213ZM41.2175 14.6921C42.0564 14.6921 42.6647 14.3461 43.0422 13.6539C43.4407 12.9618 43.6399 11.8082 43.6399 10.1933C43.6399 8.57828 43.4407 7.44569 43.0422 6.79551C42.6647 6.12434 42.0774 5.78876 41.2804 5.78876C40.5044 5.78876 39.9171 6.13483 39.5186 6.82697C39.1201 7.49813 38.9208 8.6412 38.9208 10.2562C38.9208 11.8712 39.0991 13.0142 39.4557 13.6854C39.8332 14.3566 40.4205 14.6921 41.2175 14.6921ZM36.5298 23.4067C36.5298 24.6442 36.9074 25.5775 37.6624 26.2067C38.4384 26.836 39.6549 27.1506 41.3119 27.1506C43.0527 27.1506 44.3635 26.8674 45.2444 26.3011C46.1253 25.7348 46.5658 24.9378 46.5658 23.9101C46.5658 23.3228 46.3456 22.8509 45.9051 22.4944C45.4856 22.1378 44.762 21.8652 43.7343 21.6764L38.0399 20.6067C37.8722 20.5648 37.7044 20.5228 37.5366 20.4809C37.2429 20.9004 37.0017 21.3723 36.813 21.8966C36.6242 22.4419 36.5298 22.9453 36.5298 23.4067Z" fill="#D0B35D"/>
<path d="M58.572 21.236C56.978 21.236 55.5937 20.9109 54.4192 20.2607C53.2446 19.5895 52.3323 18.6457 51.6821 17.4292C51.0529 16.2127 50.7383 14.7865 50.7383 13.1506C50.7383 11.5146 51.0738 10.0989 51.745 8.90337C52.4371 7.70787 53.3705 6.78502 54.545 6.13483C55.7405 5.48464 57.0828 5.15955 58.572 5.15955C60.0611 5.15955 61.3929 5.48464 62.5675 6.13483C63.742 6.76404 64.6648 7.6764 65.336 8.87191C66.0281 10.0674 66.3742 11.4936 66.3742 13.1506C66.3742 14.8075 66.0491 16.2442 65.3989 17.4607C64.7697 18.6562 63.8678 19.5895 62.6933 20.2607C61.5398 20.9109 60.166 21.236 58.572 21.236ZM58.572 20.6067C59.306 20.6067 59.8933 20.397 60.3338 19.9775C60.7742 19.5581 61.0888 18.8135 61.2776 17.7438C61.4873 16.6742 61.5922 15.164 61.5922 13.2135C61.5922 11.2419 61.4873 9.72135 61.2776 8.65169C61.0888 7.58202 60.7742 6.83745 60.3338 6.41798C59.8933 5.9985 59.306 5.78876 58.572 5.78876C57.8379 5.78876 57.2401 5.9985 56.7787 6.41798C56.3383 6.83745 56.0132 7.58202 55.8034 8.65169C55.6147 9.72135 55.5203 11.2419 55.5203 13.2135C55.5203 15.164 55.6147 16.6742 55.8034 17.7438C56.0132 18.8135 56.3383 19.5581 56.7787 19.9775C57.2401 20.397 57.8379 20.6067 58.572 20.6067Z" fill="#D0B35D"/>
</svg>
