<svg width="40" height="40" viewBox="0 0 40 40" fill="none" xmlns="http://www.w3.org/2000/svg">
<g clip-path="url(#clip0_1_2101)">
<path d="M30.2758 35.4527C23.4447 36.1832 16.5553 36.1832 9.72421 35.4527C8.39972 35.3111 7.16366 34.7202 6.22176 33.7783C5.27986 32.8364 4.68895 31.6003 4.54737 30.2758C3.81681 23.4448 3.81681 16.5553 4.54737 9.72421C4.68895 8.39972 5.27986 7.16366 6.22176 6.22176C7.16366 5.27987 8.39972 4.68895 9.72421 4.54737C16.5553 3.81681 23.4447 3.81681 30.2758 4.54737C31.6003 4.68895 32.8364 5.27987 33.7783 6.22176C34.7202 7.16366 35.3111 8.39972 35.4526 9.72421C36.1832 16.5553 36.1832 23.4448 35.4526 30.2758C35.3111 31.6003 34.7202 32.8364 33.7783 33.7783C32.8364 34.7202 31.6003 35.3111 30.2758 35.4527Z" fill="#F0F9FF"/>
<path d="M15.9621 15.2421V15.9621H13.6463L4.79369 8.59369C5.00219 7.92305 5.33106 7.29598 5.76421 6.74316L15.9621 15.2421Z" fill="#F40055"/>
<path d="M35.2274 8.63158L26.4232 15.9621H24.0379V15.2905L34.2695 6.77895C34.6981 7.33351 35.0227 7.96121 35.2274 8.63158Z" fill="#F40055"/>
<path d="M15.9621 24.0379V24.7579L5.75579 33.2505C5.32124 32.6991 4.99157 32.0726 4.78316 31.4021L13.6358 24.0337L15.9621 24.0379Z" fill="#F40055"/>
<path d="M35.2274 31.3684C35.0234 32.041 34.6988 32.6709 34.2695 33.2274L24.0379 24.7095V24.0379H26.4232L35.2274 31.3684Z" fill="#F40055"/>
<path d="M10.3895 15.9621H4.08421C4.15439 14.3032 4.26667 12.6477 4.42106 10.9958L10.3895 15.9621Z" fill="#406BD4"/>
<path d="M10.2568 24.0379L4.42106 28.901C4.26527 27.2828 4.15299 25.6618 4.08421 24.0379H10.2568Z" fill="#406BD4"/>
<path d="M15.9621 27.419V35.9137C13.8821 35.8309 11.8028 35.6772 9.72421 35.4526C8.85554 35.3607 8.01908 35.0728 7.27789 34.6105L15.9621 27.419Z" fill="#406BD4"/>
<path d="M15.9621 4.08632V12.4547L7.38527 5.32C8.1006 4.89796 8.89824 4.63447 9.72421 4.54737C11.8028 4.32281 13.8821 4.16912 15.9621 4.08632Z" fill="#406BD4"/>
<path d="M32.7242 5.38737L24.0379 12.5874V4.08632C26.1179 4.16912 28.1972 4.32281 30.2758 4.54737C31.1449 4.6387 31.9821 4.9259 32.7242 5.38737Z" fill="#406BD4"/>
<path d="M35.9158 15.9621H29.7537L35.5895 11.1074C35.7411 12.7242 35.8498 14.3425 35.9158 15.9621Z" fill="#406BD4"/>
<path d="M32.7726 34.5832C32.0188 35.0621 31.1641 35.3597 30.2758 35.4526C28.1972 35.6772 26.1179 35.8309 24.0379 35.9137V27.3179L32.7726 34.5832Z" fill="#406BD4"/>
<path d="M35.9158 24.0379C35.8498 25.6225 35.7446 27.207 35.6 28.7916L29.8947 24.0379H35.9158Z" fill="#406BD4"/>
<path d="M35.9705 22.3811H22.3811V35.9705C20.7937 36.0098 19.2063 36.0098 17.6189 35.9705V22.3811H4.02947C3.98877 20.7937 3.98877 19.2063 4.02947 17.6189H17.6189V4.03158C19.2063 3.99088 20.7937 3.99088 22.3811 4.03158V17.6189H35.9705C36.0112 19.2063 36.0112 20.7937 35.9705 22.3811Z" fill="#F40055"/>
</g>
<defs>
<clipPath id="clip0_1_2101">
<rect width="32" height="32" fill="white" transform="translate(4 4)"/>
</clipPath>
</defs>
</svg>
